<?xml version="1.0" standalone="no"?>
<!DOCTYPE svg PUBLIC "-//W3C//DTD SVG 20010904//EN"
 "http://www.w3.org/TR/2001/REC-SVG-20010904/DTD/svg10.dtd">
<svg version="1.0" xmlns="http://www.w3.org/2000/svg"
 width="64.000000pt" height="64.000000pt" viewBox="0 0 64.000000 64.000000"
 preserveAspectRatio="xMidYMid meet">
<metadata>
Created by potrace 1.15, written by Peter Selinger 2001-2017
</metadata>
<g transform="translate(0.000000,64.000000) scale(0.100000,-0.100000)"
fill="#000000" stroke="none">
<path d="M225 621 c-80 -37 -125 -111 -125 -205 0 -58 37 -144 95 -220 l27
-36 99 0 98 0 41 61 c60 88 80 136 80 199 0 93 -50 170 -132 204 -50 21 -134
20 -183 -3z m75 -236 c0 -113 -4 -185 -10 -185 -24 0 -56 181 -45 259 6 43 36
111 50 111 3 0 5 -83 5 -185z m77 142 c13 -24 17 -55 17 -122 0 -91 -25 -205
-44 -205 -6 0 -10 72 -10 186 0 191 3 204 37 141z"/>
<path d="M240 60 l0 -60 80 0 80 0 0 60 0 60 -80 0 -80 0 0 -60z"/>
</g>
</svg>
