<?xml version="1.0" standalone="no"?>
<!DOCTYPE svg PUBLIC "-//W3C//DTD SVG 20010904//EN"
 "http://www.w3.org/TR/2001/REC-SVG-20010904/DTD/svg10.dtd">
<svg version="1.0" xmlns="http://www.w3.org/2000/svg"
 width="64.000000pt" height="64.000000pt" viewBox="0 0 64.000000 64.000000"
 preserveAspectRatio="xMidYMid meet">
<metadata>
Created by potrace 1.15, written by Peter Selinger 2001-2017
</metadata>
<g transform="translate(0.000000,64.000000) scale(0.100000,-0.100000)"
fill="#000000" stroke="none">
<path d="M160 610 l0 -30 -80 0 -80 0 0 -290 0 -290 320 0 320 0 0 290 0 290
-80 0 -80 0 0 30 c0 23 -4 30 -20 30 -16 0 -20 -7 -20 -30 0 -29 -1 -30 -50
-30 -49 0 -50 1 -50 30 0 23 -4 30 -20 30 -16 0 -20 -7 -20 -30 0 -29 -1 -30
-50 -30 -49 0 -50 1 -50 30 0 23 -4 30 -20 30 -16 0 -20 -7 -20 -30z m0 -90
c0 -13 7 -20 20 -20 13 0 20 7 20 20 0 17 7 20 50 20 43 0 50 -3 50 -20 0 -13
7 -20 20 -20 13 0 20 7 20 20 0 17 7 20 50 20 43 0 50 -3 50 -20 0 -13 7 -20
20 -20 13 0 20 7 20 20 0 18 7 20 60 20 l60 0 0 -250 0 -250 -280 0 -280 0 0
250 0 250 60 0 c53 0 60 -2 60 -20z"/>
<path d="M202 437 c-50 -53 -13 -137 59 -137 47 0 79 34 79 81 0 71 -90 107
-138 56z"/>
<path d="M364 291 c-33 -38 -63 -70 -67 -70 -5 -1 -29 15 -53 36 -53 43 -48
47 -128 -82 l-55 -90 129 -3 c72 -1 188 -1 258 0 l129 3 -74 134 c-40 74 -75
136 -77 138 -2 2 -30 -28 -62 -66z m-36 -169 c-94 -1 -173 0 -176 2 -3 4 17
40 50 89 3 6 27 -7 53 -29 l47 -38 54 59 c29 33 53 65 54 70 0 6 20 -26 44
-70 l45 -80 -171 -3z"/>
</g>
</svg>
