<?xml version="1.0" standalone="no"?>
<!DOCTYPE svg PUBLIC "-//W3C//DTD SVG 20010904//EN"
 "http://www.w3.org/TR/2001/REC-SVG-20010904/DTD/svg10.dtd">
<svg version="1.0" xmlns="http://www.w3.org/2000/svg"
 width="64.000000pt" height="64.000000pt" viewBox="0 0 64.000000 64.000000"
 preserveAspectRatio="xMidYMid meet">
<metadata>
Created by potrace 1.15, written by Peter Selinger 2001-2017
</metadata>
<g transform="translate(0.000000,64.000000) scale(0.100000,-0.100000)"
fill="#000000" stroke="none">
<path d="M262 617 c-11 -12 -28 -39 -36 -59 l-16 -37 -50 6 c-61 7 -108 -10
-116 -44 -9 -35 3 -82 31 -119 14 -18 25 -38 25 -44 0 -6 -11 -26 -25 -44 -28
-37 -40 -84 -31 -119 8 -34 55 -51 116 -44 l50 6 21 -45 c26 -53 52 -74 96
-74 24 0 38 8 57 33 13 17 28 44 31 60 7 26 9 27 56 21 86 -12 129 12 129 72
0 40 -12 68 -46 105 l-24 25 30 40 c32 42 46 90 36 128 -8 34 -55 50 -120 42
-52 -6 -54 -5 -61 22 -3 15 -18 42 -31 60 -20 26 -32 32 -63 32 -26 0 -44 -7
-59 -23z m136 -292 c1 -68 -2 -123 -7 -128 -10 -10 -127 53 -178 97 -24 21
-26 26 -14 40 20 24 173 117 186 113 6 -2 11 -52 13 -122z"/>
</g>
</svg>
