<?xml version="1.0" standalone="no"?>
<!DOCTYPE svg PUBLIC "-//W3C//DTD SVG 20010904//EN"
 "http://www.w3.org/TR/2001/REC-SVG-20010904/DTD/svg10.dtd">
<svg version="1.0" xmlns="http://www.w3.org/2000/svg"
 width="64.000000pt" height="64.000000pt" viewBox="0 0 64.000000 64.000000"
 preserveAspectRatio="xMidYMid meet">
<metadata>
Created by potrace 1.15, written by Peter Selinger 2001-2017
</metadata>
<g transform="translate(0.000000,64.000000) scale(0.100000,-0.100000)"
fill="#000000" stroke="none">
<path d="M92 587 l-52 -53 0 -267 0 -267 280 0 280 0 0 268 0 268 -53 52 -53
52 -175 0 -175 0 -52 -53z m403 -17 l29 -30 -204 0 -204 0 29 30 29 30 146 0
146 0 29 -30z m65 -300 l0 -230 -240 0 -240 0 0 230 0 230 240 0 240 0 0 -230z"/>
<path d="M160 383 c0 -83 68 -143 160 -143 92 0 160 60 160 143 0 30 -4 37
-20 37 -14 0 -21 -9 -26 -35 -12 -65 -76 -109 -139 -97 -37 7 -82 55 -89 97
-5 26 -12 35 -26 35 -16 0 -20 -7 -20 -37z"/>
</g>
</svg>
