<?xml version="1.0" standalone="no"?>
<!DOCTYPE svg PUBLIC "-//W3C//DTD SVG 20010904//EN"
 "http://www.w3.org/TR/2001/REC-SVG-20010904/DTD/svg10.dtd">
<svg version="1.0" xmlns="http://www.w3.org/2000/svg"
 width="64.000000pt" height="64.000000pt" viewBox="0 0 64.000000 64.000000"
 preserveAspectRatio="xMidYMid meet">
<metadata>
Created by potrace 1.15, written by Peter Selinger 2001-2017
</metadata>
<g transform="translate(0.000000,64.000000) scale(0.100000,-0.100000)"
fill="#000000" stroke="none">
<path d="M170 545 l-45 -85 -62 0 -63 0 0 -70 0 -70 30 0 30 0 0 -160 0 -160
260 0 260 0 0 160 0 160 30 0 30 0 0 70 0 70 -62 0 -63 0 -45 85 c-44 85 -53
93 -79 76 -11 -7 -5 -24 28 -85 l42 -76 -141 0 -141 0 42 76 c33 61 39 78 28
85 -26 17 -35 9 -79 -76z m430 -155 l0 -30 -280 0 -280 0 0 30 0 30 280 0 280
0 0 -30z m-60 -210 l0 -140 -220 0 -220 0 0 140 0 140 220 0 220 0 0 -140z"/>
</g>
</svg>
