<?xml version="1.0" standalone="no"?>
<!DOCTYPE svg PUBLIC "-//W3C//DTD SVG 20010904//EN"
 "http://www.w3.org/TR/2001/REC-SVG-20010904/DTD/svg10.dtd">
<svg version="1.0" xmlns="http://www.w3.org/2000/svg"
 width="64.000000pt" height="64.000000pt" viewBox="0 0 64.000000 64.000000"
 preserveAspectRatio="xMidYMid meet">
<metadata>
Created by potrace 1.15, written by Peter Selinger 2001-2017
</metadata>
<g transform="translate(0.000000,64.000000) scale(0.100000,-0.100000)"
fill="#000000" stroke="none">
<path d="M200 570 l0 -50 -100 0 -100 0 0 -180 0 -180 110 0 110 0 0 -30 0
-30 100 0 100 0 0 30 0 30 110 0 110 0 0 180 0 180 -100 0 -100 0 0 50 0 50
-120 0 -120 0 0 -50z m400 -230 l0 -140 -90 0 -90 0 0 30 0 30 -100 0 -100 0
0 -30 0 -30 -90 0 -90 0 0 140 0 140 280 0 280 0 0 -140z"/>
<path d="M20 80 l0 -60 300 0 300 0 0 60 c0 53 -2 60 -20 60 -17 0 -20 -7 -20
-40 l0 -40 -260 0 -260 0 0 40 c0 33 -3 40 -20 40 -18 0 -20 -7 -20 -60z"/>
</g>
</svg>
