<?xml version="1.0" standalone="no"?>
<!DOCTYPE svg PUBLIC "-//W3C//DTD SVG 20010904//EN"
 "http://www.w3.org/TR/2001/REC-SVG-20010904/DTD/svg10.dtd">
<svg version="1.0" xmlns="http://www.w3.org/2000/svg"
 width="64.000000pt" height="64.000000pt" viewBox="0 0 64.000000 64.000000"
 preserveAspectRatio="xMidYMid meet">
<metadata>
Created by potrace 1.15, written by Peter Selinger 2001-2017
</metadata>
<g transform="translate(0.000000,64.000000) scale(0.100000,-0.100000)"
fill="#000000" stroke="none">
<path d="M120 610 l0 -30 -60 0 -60 0 0 -290 0 -290 320 0 320 0 0 290 0 290
-60 0 -60 0 0 30 0 30 -60 0 -60 0 0 -30 0 -30 -80 0 -80 0 0 30 0 30 -60 0
-60 0 0 -30z m0 -100 l0 -30 60 0 60 0 0 30 0 30 80 0 80 0 0 -30 0 -30 60 0
60 0 0 30 c0 28 2 30 40 30 l40 0 0 -50 0 -50 -280 0 -280 0 0 50 0 50 40 0
c38 0 40 -2 40 -30z m480 -290 l0 -180 -280 0 -280 0 0 180 0 180 280 0 280 0
0 -180z"/>
</g>
</svg>
