<?xml version="1.0" standalone="no"?>
<!DOCTYPE svg PUBLIC "-//W3C//DTD SVG 20010904//EN"
 "http://www.w3.org/TR/2001/REC-SVG-20010904/DTD/svg10.dtd">
<svg version="1.0" xmlns="http://www.w3.org/2000/svg"
 width="64.000000pt" height="64.000000pt" viewBox="0 0 64.000000 64.000000"
 preserveAspectRatio="xMidYMid meet">
<metadata>
Created by potrace 1.15, written by Peter Selinger 2001-2017
</metadata>
<g transform="translate(0.000000,64.000000) scale(0.100000,-0.100000)"
fill="#000000" stroke="none">
<path d="M0 290 l0 -250 320 0 320 0 0 250 0 250 -320 0 -320 0 0 -250z m600
0 l0 -210 -280 0 -280 0 0 210 0 210 280 0 280 0 0 -210z"/>
<path d="M323 400 c-87 -52 -83 -198 6 -245 98 -50 211 16 211 123 0 85 -56
142 -140 142 -27 0 -58 -8 -77 -20z m142 -55 c19 -18 25 -35 25 -65 0 -56 -34
-90 -90 -90 -56 0 -90 34 -90 90 0 56 34 90 90 90 30 0 47 -6 65 -25z"/>
</g>
</svg>
