<?xml version="1.0" standalone="no"?>
<!DOCTYPE svg PUBLIC "-//W3C//DTD SVG 20010904//EN"
 "http://www.w3.org/TR/2001/REC-SVG-20010904/DTD/svg10.dtd">
<svg version="1.0" xmlns="http://www.w3.org/2000/svg"
 width="64.000000pt" height="64.000000pt" viewBox="0 0 64.000000 64.000000"
 preserveAspectRatio="xMidYMid meet">
<metadata>
Created by potrace 1.15, written by Peter Selinger 2001-2017
</metadata>
<g transform="translate(0.000000,64.000000) scale(0.100000,-0.100000)"
fill="#000000" stroke="none">
<path d="M20 510 c0 -43 3 -50 20 -50 16 0 20 7 20 30 l0 30 80 0 80 0 0 -200
0 -200 -50 0 c-43 0 -50 -3 -50 -20 0 -19 7 -20 120 -20 113 0 120 1 120 20 0
17 -7 20 -50 20 l-50 0 0 200 0 200 80 0 80 0 0 -30 c0 -23 4 -30 20 -30 17 0
20 7 20 50 l0 50 -220 0 -220 0 0 -50z"/>
<path d="M340 340 c0 -33 3 -40 20 -40 13 0 20 7 20 20 0 17 7 20 40 20 l40 0
0 -110 0 -110 -30 0 c-23 0 -30 -4 -30 -20 0 -18 7 -20 80 -20 73 0 80 2 80
20 0 16 -7 20 -30 20 l-30 0 0 110 0 110 40 0 c33 0 40 -3 40 -20 0 -13 7 -20
20 -20 17 0 20 7 20 40 l0 40 -140 0 -140 0 0 -40z"/>
</g>
</svg>
