<?xml version="1.0" standalone="no"?>
<!DOCTYPE svg PUBLIC "-//W3C//DTD SVG 20010904//EN"
 "http://www.w3.org/TR/2001/REC-SVG-20010904/DTD/svg10.dtd">
<svg version="1.0" xmlns="http://www.w3.org/2000/svg"
 width="64.000000pt" height="64.000000pt" viewBox="0 0 64.000000 64.000000"
 preserveAspectRatio="xMidYMid meet">
<metadata>
Created by potrace 1.15, written by Peter Selinger 2001-2017
</metadata>
<g transform="translate(0.000000,64.000000) scale(0.100000,-0.100000)"
fill="#000000" stroke="none">
<path d="M200 623 c-64 -23 -161 -123 -183 -187 -21 -63 -22 -169 -1 -230 20
-59 97 -144 160 -176 42 -21 63 -25 144 -25 111 0 161 20 228 89 70 71 87 117
87 226 0 80 -4 102 -24 142 -29 57 -91 119 -151 150 -58 30 -192 36 -260 11z
m184 -38 c95 -16 185 -111 204 -214 17 -91 -6 -168 -71 -238 l-30 -32 -36 20
c-51 27 -211 27 -262 0 l-36 -20 -30 32 c-45 48 -61 79 -71 136 -21 118 30
226 140 294 27 17 112 37 138 32 8 -2 32 -6 54 -10z"/>
<path d="M234 446 c-33 -33 -34 -36 -34 -116 0 -80 1 -83 34 -116 30 -30 40
-34 86 -34 46 0 56 4 86 34 33 33 34 36 34 116 0 80 -1 83 -34 116 -30 30 -40
34 -86 34 -46 0 -56 -4 -86 -34z m135 -35 c46 -46 32 -156 -20 -175 -43 -15
-78 0 -96 41 -17 43 -11 108 14 135 22 24 78 23 102 -1z"/>
</g>
</svg>
