<?xml version="1.0" standalone="no"?>
<!DOCTYPE svg PUBLIC "-//W3C//DTD SVG 20010904//EN"
 "http://www.w3.org/TR/2001/REC-SVG-20010904/DTD/svg10.dtd">
<svg version="1.0" xmlns="http://www.w3.org/2000/svg"
 width="64.000000pt" height="64.000000pt" viewBox="0 0 64.000000 64.000000"
 preserveAspectRatio="xMidYMid meet">
<metadata>
Created by potrace 1.15, written by Peter Selinger 2001-2017
</metadata>
<g transform="translate(0.000000,64.000000) scale(0.100000,-0.100000)"
fill="#000000" stroke="none">
<path d="M230 624 c-43 -19 -75 -48 -106 -96 -13 -21 -30 -38 -37 -38 -7 0
-29 -16 -48 -36 -32 -33 -34 -39 -34 -104 0 -67 1 -71 38 -107 37 -38 38 -38
127 -41 84 -4 90 -3 90 16 0 17 -9 20 -77 24 -71 5 -79 8 -105 37 -40 44 -39
101 1 142 16 16 36 29 45 29 9 0 23 15 32 33 37 73 91 109 164 109 81 0 149
-53 170 -132 7 -26 18 -41 33 -46 68 -20 90 -99 41 -145 -22 -20 -38 -24 -105
-28 -70 -3 -79 -5 -79 -22 0 -17 8 -19 86 -19 124 0 174 37 174 130 0 52 -24
93 -65 116 -20 10 -37 30 -44 51 -18 48 -69 103 -116 124 -49 23 -137 24 -185
3z"/>
<path d="M300 228 l0 -132 -40 39 c-38 37 -41 38 -57 22 -17 -16 -14 -21 50
-85 l67 -67 67 67 c64 64 67 69 50 85 -16 16 -19 15 -57 -22 l-40 -39 0 132
c0 125 -1 132 -20 132 -19 0 -20 -7 -20 -132z"/>
</g>
</svg>
