<?xml version="1.0" standalone="no"?>
<!DOCTYPE svg PUBLIC "-//W3C//DTD SVG 20010904//EN"
 "http://www.w3.org/TR/2001/REC-SVG-20010904/DTD/svg10.dtd">
<svg version="1.0" xmlns="http://www.w3.org/2000/svg"
 width="64.000000pt" height="64.000000pt" viewBox="0 0 64.000000 64.000000"
 preserveAspectRatio="xMidYMid meet">
<metadata>
Created by potrace 1.15, written by Peter Selinger 2001-2017
</metadata>
<g transform="translate(0.000000,64.000000) scale(0.100000,-0.100000)"
fill="#000000" stroke="none">
<path d="M120 459 c-43 -17 -59 -53 -90 -199 -36 -167 -38 -205 -11 -220 31
-16 45 -12 94 25 35 26 56 35 86 35 31 0 44 6 64 30 35 41 79 41 114 0 20 -24
33 -30 64 -30 30 0 51 -9 86 -35 49 -37 63 -41 94 -25 26 14 25 48 -7 206 -31
160 -40 182 -78 205 -42 26 -86 24 -130 -6 -49 -33 -129 -35 -162 -4 -25 24
-87 33 -124 18z m93 -59 c20 -16 40 -20 107 -20 67 0 87 4 107 20 14 11 35 20
47 20 48 0 58 -21 91 -183 20 -94 28 -154 21 -150 -54 32 -66 48 -66 87 0 54
-30 86 -81 86 -29 0 -43 -7 -62 -30 -19 -22 -35 -30 -57 -30 -22 0 -38 8 -57
30 -52 62 -143 28 -143 -55 0 -40 -11 -55 -66 -88 -7 -4 -1 46 17 130 16 75
29 139 29 143 0 4 9 19 21 34 25 31 57 33 92 6z"/>
</g>
</svg>
