<?xml version="1.0" standalone="no"?>
<!DOCTYPE svg PUBLIC "-//W3C//DTD SVG 20010904//EN"
 "http://www.w3.org/TR/2001/REC-SVG-20010904/DTD/svg10.dtd">
<svg version="1.0" xmlns="http://www.w3.org/2000/svg"
 width="64.000000pt" height="64.000000pt" viewBox="0 0 64.000000 64.000000"
 preserveAspectRatio="xMidYMid meet">
<metadata>
Created by potrace 1.15, written by Peter Selinger 2001-2017
</metadata>
<g transform="translate(0.000000,64.000000) scale(0.100000,-0.100000)"
fill="#000000" stroke="none">
<path d="M0 580 c0 -19 7 -20 140 -20 l140 0 0 -230 0 -230 29 0 c21 0 32 -6
36 -20 10 -32 54 -60 95 -60 41 0 85 28 95 60 5 16 15 20 56 20 l49 0 0 99 0
100 -42 23 c-36 20 -44 32 -70 101 l-30 77 -89 0 -89 0 0 50 0 50 -160 0
c-153 0 -160 -1 -160 -20z m492 -203 c26 -68 35 -80 69 -97 39 -20 39 -21 39
-80 0 -60 0 -60 -29 -60 -21 0 -32 6 -36 20 -10 32 -54 60 -95 60 -41 0 -85
-28 -95 -60 -17 -53 -25 -7 -25 140 l0 161 71 -3 72 -3 29 -78z"/>
</g>
</svg>
