<?xml version="1.0" standalone="no"?>
<!DOCTYPE svg PUBLIC "-//W3C//DTD SVG 20010904//EN"
 "http://www.w3.org/TR/2001/REC-SVG-20010904/DTD/svg10.dtd">
<svg version="1.0" xmlns="http://www.w3.org/2000/svg"
 width="64.000000pt" height="64.000000pt" viewBox="0 0 64.000000 64.000000"
 preserveAspectRatio="xMidYMid meet">
<metadata>
Created by potrace 1.15, written by Peter Selinger 2001-2017
</metadata>
<g transform="translate(0.000000,64.000000) scale(0.100000,-0.100000)"
fill="#000000" stroke="none">
<path d="M66 509 l-57 -90 151 -195 c83 -107 155 -194 160 -194 5 0 77 87 160
194 l151 195 -57 90 -56 91 -198 0 -198 0 -56 -91z m298 -196 c-13 -49 -27
-100 -31 -115 -3 -16 -9 -28 -13 -28 -4 0 -10 12 -13 28 -4 15 -18 66 -31 115
l-25 87 69 0 69 0 -25 -87z"/>
</g>
</svg>
