<?xml version="1.0" standalone="no"?>
<!DOCTYPE svg PUBLIC "-//W3C//DTD SVG 20010904//EN"
 "http://www.w3.org/TR/2001/REC-SVG-20010904/DTD/svg10.dtd">
<svg version="1.0" xmlns="http://www.w3.org/2000/svg"
 width="64.000000pt" height="64.000000pt" viewBox="0 0 64.000000 64.000000"
 preserveAspectRatio="xMidYMid meet">
<metadata>
Created by potrace 1.15, written by Peter Selinger 2001-2017
</metadata>
<g transform="translate(0.000000,64.000000) scale(0.100000,-0.100000)"
fill="#000000" stroke="none">
<path d="M34 566 l-34 -34 0 -196 c0 -219 5 -241 63 -276 93 -57 217 7 217
112 0 37 8 52 31 60 26 10 40 -7 46 -53 3 -24 12 -57 20 -72 45 -90 201 -88
248 2 12 24 15 69 15 227 l0 196 -34 34 c-42 42 -86 47 -86 10 0 -17 7 -26 26
-30 38 -10 54 -59 54 -166 l0 -91 -30 16 c-56 29 -127 18 -176 -27 -14 -13
-24 -16 -29 -9 -8 14 -82 14 -90 0 -5 -7 -15 -4 -29 9 -49 45 -121 56 -178 26
l-30 -16 3 110 c4 91 8 114 23 131 11 12 27 21 38 21 13 0 18 7 18 25 0 38
-43 34 -86 -9z m171 -321 c19 -18 25 -35 25 -65 0 -56 -34 -90 -90 -90 -56 0
-90 34 -90 90 0 56 34 90 90 90 30 0 47 -6 65 -25z m360 0 c19 -18 25 -35 25
-65 0 -30 -6 -47 -25 -65 -18 -19 -35 -25 -65 -25 -56 0 -90 34 -90 90 0 56
34 90 90 90 30 0 47 -6 65 -25z"/>
</g>
</svg>
