<?xml version="1.0" standalone="no"?>
<!DOCTYPE svg PUBLIC "-//W3C//DTD SVG 20010904//EN"
 "http://www.w3.org/TR/2001/REC-SVG-20010904/DTD/svg10.dtd">
<svg version="1.0" xmlns="http://www.w3.org/2000/svg"
 width="64.000000pt" height="64.000000pt" viewBox="0 0 64.000000 64.000000"
 preserveAspectRatio="xMidYMid meet">
<metadata>
Created by potrace 1.15, written by Peter Selinger 2001-2017
</metadata>
<g transform="translate(0.000000,64.000000) scale(0.100000,-0.100000)"
fill="#000000" stroke="none">
<path d="M200 623 c-64 -23 -161 -123 -183 -187 -21 -63 -22 -169 -1 -230 20
-59 97 -144 160 -176 42 -21 63 -25 144 -25 111 0 161 20 228 89 70 71 87 117
87 226 0 80 -4 102 -24 142 -29 57 -91 119 -151 150 -58 30 -192 36 -260 11z"/>
</g>
</svg>
