<?xml version="1.0" standalone="no"?>
<!DOCTYPE svg PUBLIC "-//W3C//DTD SVG 20010904//EN"
 "http://www.w3.org/TR/2001/REC-SVG-20010904/DTD/svg10.dtd">
<svg version="1.0" xmlns="http://www.w3.org/2000/svg"
 width="64.000000pt" height="64.000000pt" viewBox="0 0 64.000000 64.000000"
 preserveAspectRatio="xMidYMid meet">
<metadata>
Created by potrace 1.15, written by Peter Selinger 2001-2017
</metadata>
<g transform="translate(0.000000,64.000000) scale(0.100000,-0.100000)"
fill="#000000" stroke="none">
<path d="M158 529 c-87 -43 -158 -84 -158 -89 0 -5 22 -21 50 -35 l50 -25 0
-118 c0 -116 1 -119 28 -145 40 -38 103 -57 192 -57 89 0 152 19 192 57 27 26
28 29 28 145 l0 118 50 25 c27 14 50 30 50 35 0 8 -312 172 -322 169 -2 0 -74
-36 -160 -80z m267 -31 c58 -29 105 -55 105 -58 0 -3 -47 -29 -105 -58 l-105
-52 -105 52 c-58 29 -105 55 -105 58 0 4 193 106 207 109 2 1 50 -23 108 -51z
m-15 -183 l90 45 0 -89 c0 -73 -3 -93 -20 -113 -38 -49 -191 -68 -272 -34 -57
24 -68 48 -68 148 l0 88 90 -45 90 -45 90 45z"/>
</g>
</svg>
