<?xml version="1.0" standalone="no"?>
<!DOCTYPE svg PUBLIC "-//W3C//DTD SVG 20010904//EN"
 "http://www.w3.org/TR/2001/REC-SVG-20010904/DTD/svg10.dtd">
<svg version="1.0" xmlns="http://www.w3.org/2000/svg"
 width="64.000000pt" height="64.000000pt" viewBox="0 0 64.000000 64.000000"
 preserveAspectRatio="xMidYMid meet">
<metadata>
Created by potrace 1.15, written by Peter Selinger 2001-2017
</metadata>
<g transform="translate(0.000000,64.000000) scale(0.100000,-0.100000)"
fill="#000000" stroke="none">
<path d="M56 355 c11 -146 23 -268 27 -271 10 -10 210 -64 237 -64 27 0 227
54 237 64 4 3 16 125 27 271 l21 265 -285 0 -285 0 21 -265z m494 194 c0 -79
-33 -425 -41 -430 -5 -3 -50 -16 -99 -28 l-90 -24 -90 24 c-49 12 -94 25 -99
28 -8 5 -41 351 -41 430 l0 31 230 0 230 0 0 -31z"/>
<path d="M162 413 c3 -49 7 -89 7 -90 1 -2 57 -3 127 -3 l125 0 -3 -52 -3 -52
-48 -15 c-41 -13 -53 -13 -95 0 -35 11 -48 20 -50 37 -2 14 -10 22 -23 22 -16
0 -19 -7 -19 -39 l0 -40 70 -22 70 -23 70 23 c39 12 70 23 71 24 0 1 4 41 7
90 l7 87 -132 0 -133 0 0 50 0 50 135 0 c128 0 135 1 135 20 0 19 -7 20 -163
20 l-162 0 7 -87z"/>
</g>
</svg>
