<?xml version="1.0" standalone="no"?>
<!DOCTYPE svg PUBLIC "-//W3C//DTD SVG 20010904//EN"
 "http://www.w3.org/TR/2001/REC-SVG-20010904/DTD/svg10.dtd">
<svg version="1.0" xmlns="http://www.w3.org/2000/svg"
 width="64.000000pt" height="64.000000pt" viewBox="0 0 64.000000 64.000000"
 preserveAspectRatio="xMidYMid meet">
<metadata>
Created by potrace 1.15, written by Peter Selinger 2001-2017
</metadata>
<g transform="translate(0.000000,64.000000) scale(0.100000,-0.100000)"
fill="#000000" stroke="none">
<path d="M0 320 l0 -280 320 0 320 0 0 280 0 280 -320 0 -320 0 0 -280z m600
90 c0 -82 -3 -150 -6 -150 -3 0 -37 28 -75 63 -38 34 -73 63 -77 65 -4 1 -38
-29 -76 -67 l-69 -70 -49 40 -48 41 -59 -51 c-32 -28 -64 -57 -71 -66 -7 -8
-16 -15 -21 -15 -5 0 -9 81 -9 180 l0 180 280 0 280 0 0 -150z m-77 -157 l77
-67 0 -53 0 -53 -280 0 -280 0 0 23 c0 16 23 43 77 90 42 37 80 67 84 67 4 0
39 -27 77 -60 39 -33 74 -60 80 -60 5 0 15 7 22 15 10 12 7 19 -17 39 l-28 25
50 50 c27 28 52 51 55 51 4 0 41 -30 83 -67z"/>
<path d="M237 482 c-23 -25 -22 -85 1 -105 25 -23 85 -22 105 1 23 25 22 85
-1 105 -25 23 -85 22 -105 -1z"/>
</g>
</svg>
