<?xml version="1.0" standalone="no"?>
<!DOCTYPE svg PUBLIC "-//W3C//DTD SVG 20010904//EN"
 "http://www.w3.org/TR/2001/REC-SVG-20010904/DTD/svg10.dtd">
<svg version="1.0" xmlns="http://www.w3.org/2000/svg"
 width="64.000000pt" height="64.000000pt" viewBox="0 0 64.000000 64.000000"
 preserveAspectRatio="xMidYMid meet">
<metadata>
Created by potrace 1.15, written by Peter Selinger 2001-2017
</metadata>
<g transform="translate(0.000000,64.000000) scale(0.100000,-0.100000)"
fill="#000000" stroke="none">
<path d="M60 614 c0 -16 -11 -35 -30 -51 l-30 -25 0 -269 0 -269 320 0 320 0
0 269 0 269 -30 25 c-19 16 -30 35 -30 51 0 19 -5 26 -20 26 -15 0 -20 -7 -20
-26 0 -16 -11 -35 -30 -51 -27 -22 -30 -31 -30 -80 l0 -55 -30 26 c-17 14 -49
31 -70 37 -38 11 -40 14 -40 51 0 31 -3 38 -20 38 -17 0 -20 -7 -20 -38 0 -37
-2 -40 -40 -51 -21 -6 -53 -23 -70 -37 l-30 -26 0 55 c0 49 -3 58 -30 80 -19
16 -30 35 -30 51 0 19 -5 26 -20 26 -15 0 -20 -7 -20 -26z m329 -182 c40 -20
67 -54 80 -99 l10 -33 -159 0 -159 0 10 33 c20 69 80 117 149 117 19 0 50 -8
69 -18z m-269 -192 l0 -200 -40 0 -40 0 0 200 0 200 40 0 40 0 0 -200z m480 0
l0 -200 -40 0 -40 0 0 200 0 200 40 0 40 0 0 -200z m-200 -90 l0 -110 -30 0
c-28 0 -30 2 -30 40 0 33 -3 40 -20 40 -17 0 -20 -7 -20 -40 0 -38 -2 -40 -30
-40 l-30 0 0 110 0 110 80 0 80 0 0 -110z"/>
</g>
</svg>
