<?xml version="1.0" standalone="no"?>
<!DOCTYPE svg PUBLIC "-//W3C//DTD SVG 20010904//EN"
 "http://www.w3.org/TR/2001/REC-SVG-20010904/DTD/svg10.dtd">
<svg version="1.0" xmlns="http://www.w3.org/2000/svg"
 width="64.000000pt" height="64.000000pt" viewBox="0 0 64.000000 64.000000"
 preserveAspectRatio="xMidYMid meet">
<metadata>
Created by potrace 1.15, written by Peter Selinger 2001-2017
</metadata>
<g transform="translate(0.000000,64.000000) scale(0.100000,-0.100000)"
fill="#000000" stroke="none">
<path d="M243 620 c-47 -28 -63 -67 -63 -153 0 -63 -3 -77 -21 -93 -81 -71
-77 -237 7 -316 109 -102 293 -67 355 67 38 82 17 197 -47 257 -56 52 -160 74
-228 48 -24 -9 -26 -7 -26 19 0 88 38 141 100 141 42 0 90 -38 90 -71 0 -14 7
-19 25 -19 30 0 33 25 10 71 -22 42 -71 69 -125 69 -27 0 -58 -8 -77 -20z
m157 -245 c57 -29 92 -88 92 -155 0 -99 -73 -172 -172 -172 -69 0 -126 36
-160 101 -17 33 -15 112 3 148 21 39 71 81 105 89 15 3 32 7 37 9 16 4 68 -7
95 -20z"/>
<path d="M262 317 c-33 -35 -30 -89 8 -120 19 -16 30 -35 30 -51 0 -19 5 -26
20 -26 15 0 20 7 20 26 0 16 11 35 30 51 61 51 28 143 -51 143 -24 0 -43 -7
-57 -23z"/>
</g>
</svg>
