<?xml version="1.0" standalone="no"?>
<!DOCTYPE svg PUBLIC "-//W3C//DTD SVG 20010904//EN"
 "http://www.w3.org/TR/2001/REC-SVG-20010904/DTD/svg10.dtd">
<svg version="1.0" xmlns="http://www.w3.org/2000/svg"
 width="64.000000pt" height="64.000000pt" viewBox="0 0 64.000000 64.000000"
 preserveAspectRatio="xMidYMid meet">
<metadata>
Created by potrace 1.15, written by Peter Selinger 2001-2017
</metadata>
<g transform="translate(0.000000,64.000000) scale(0.100000,-0.100000)"
fill="#000000" stroke="none">
<path d="M0 400 l0 -240 160 0 c153 0 160 1 160 20 0 19 -7 20 -140 20 l-140
0 0 200 0 200 280 0 280 0 0 -140 c0 -133 1 -140 20 -140 19 0 20 7 20 160 l0
160 -320 0 -320 0 0 -240z"/>
<path d="M151 530 c-7 -20 -21 -34 -41 -41 -30 -11 -30 -11 -30 -89 0 -78 0
-78 30 -89 20 -7 34 -21 41 -41 l11 -30 79 0 c72 0 79 2 79 20 0 18 -7 20 -57
20 -54 0 -59 2 -75 30 -9 17 -29 35 -43 42 -20 9 -25 18 -25 47 0 29 6 39 30
53 17 9 35 29 42 43 11 25 13 25 127 25 l116 0 17 -30 c9 -17 29 -35 43 -42
20 -9 25 -18 25 -50 0 -31 3 -38 20 -38 18 0 20 7 20 59 0 57 -1 59 -30 70
-20 7 -34 21 -41 41 l-11 30 -158 0 -158 0 -11 -30z"/>
<path d="M262 457 c-50 -53 -13 -137 59 -137 47 0 79 34 79 81 0 71 -90 107
-138 56z"/>
<path d="M399 297 l-34 -23 0 -114 0 -114 34 -23 c48 -33 154 -33 202 0 l34
23 0 114 0 114 -34 23 c-48 33 -154 33 -202 0z"/>
</g>
</svg>
