<?xml version="1.0" standalone="no"?>
<!DOCTYPE svg PUBLIC "-//W3C//DTD SVG 20010904//EN"
 "http://www.w3.org/TR/2001/REC-SVG-20010904/DTD/svg10.dtd">
<svg version="1.0" xmlns="http://www.w3.org/2000/svg"
 width="64.000000pt" height="64.000000pt" viewBox="0 0 64.000000 64.000000"
 preserveAspectRatio="xMidYMid meet">
<metadata>
Created by potrace 1.15, written by Peter Selinger 2001-2017
</metadata>
<g transform="translate(0.000000,64.000000) scale(0.100000,-0.100000)"
fill="#000000" stroke="none">
<path d="M164 619 c-40 -11 -107 -76 -136 -131 -19 -36 -23 -58 -23 -143 0
-117 18 -166 88 -236 139 -140 378 -121 491 38 42 60 54 97 55 170 2 115 -38
172 -137 194 -43 10 -62 9 -137 -10 -47 -12 -91 -19 -96 -15 -5 3 -7 21 -3 40
10 52 -2 81 -37 93 -18 6 -32 11 -33 10 -1 0 -15 -5 -32 -10z m48 -93 c-4 -88
33 -106 157 -75 133 33 196 10 221 -80 36 -135 -88 -292 -244 -308 -134 -14
-269 90 -294 225 -18 99 11 184 84 252 59 54 80 51 76 -14z"/>
<path d="M402 417 c-50 -53 -13 -137 59 -137 47 0 79 34 79 81 0 71 -90 107
-138 56z"/>
</g>
</svg>
