<?xml version="1.0" standalone="no"?>
<!DOCTYPE svg PUBLIC "-//W3C//DTD SVG 20010904//EN"
 "http://www.w3.org/TR/2001/REC-SVG-20010904/DTD/svg10.dtd">
<svg version="1.0" xmlns="http://www.w3.org/2000/svg"
 width="64.000000pt" height="64.000000pt" viewBox="0 0 64.000000 64.000000"
 preserveAspectRatio="xMidYMid meet">
<metadata>
Created by potrace 1.15, written by Peter Selinger 2001-2017
</metadata>
<g transform="translate(0.000000,64.000000) scale(0.100000,-0.100000)"
fill="#000000" stroke="none">
<path d="M16 624 c-23 -22 -20 -81 7 -139 20 -44 21 -54 10 -85 -16 -46 -16
-155 1 -201 19 -53 61 -104 118 -140 43 -28 62 -33 127 -37 50 -3 90 1 116 10
38 13 44 13 90 -9 58 -27 117 -30 139 -7 27 27 12 154 -19 154 -31 -1 -37 -17
-22 -61 13 -36 13 -47 3 -57 -11 -11 -20 -10 -55 4 -23 9 -41 19 -39 23 2 3
21 33 43 65 40 59 40 60 40 156 0 95 -1 98 -36 152 -54 80 -120 120 -212 126
-90 5 -141 -8 -200 -53 -25 -19 -48 -35 -50 -35 -3 0 -12 19 -21 42 -14 34
-15 43 -4 54 10 10 21 10 56 -2 48 -17 47 -17 56 11 5 17 0 23 -27 33 -46 17
-103 15 -121 -4z m350 -99 c72 -15 148 -99 163 -180 15 -82 -19 -180 -77 -221
-19 -13 -26 -9 -94 45 -121 97 -252 248 -241 277 9 25 90 75 136 83 40 8 57 7
113 -4z m-158 -287 c35 -36 88 -86 118 -109 31 -25 50 -47 45 -52 -16 -16
-127 -10 -166 9 -86 40 -137 121 -137 214 0 81 8 89 45 43 17 -21 60 -68 95
-105z"/>
<path d="M257 442 c-23 -25 -22 -85 1 -105 25 -23 85 -22 105 1 23 25 22 85
-1 105 -25 23 -85 22 -105 -1z"/>
</g>
</svg>
