<?xml version="1.0" standalone="no"?>
<!DOCTYPE svg PUBLIC "-//W3C//DTD SVG 20010904//EN"
 "http://www.w3.org/TR/2001/REC-SVG-20010904/DTD/svg10.dtd">
<svg version="1.0" xmlns="http://www.w3.org/2000/svg"
 width="64.000000pt" height="64.000000pt" viewBox="0 0 64.000000 64.000000"
 preserveAspectRatio="xMidYMid meet">
<metadata>
Created by potrace 1.15, written by Peter Selinger 2001-2017
</metadata>
<g transform="translate(0.000000,64.000000) scale(0.100000,-0.100000)"
fill="#000000" stroke="none">
<path d="M556 593 c-3 -8 -6 -30 -6 -49 0 -19 -2 -34 -5 -34 -3 0 -26 15 -52
34 -67 47 -113 59 -197 54 -81 -5 -121 -23 -176 -78 -50 -50 -70 -89 -77 -151
-6 -49 -5 -51 18 -47 19 2 25 11 31 45 20 118 147 205 268 183 44 -8 131 -57
138 -78 3 -10 -9 -12 -57 -6 -60 6 -61 6 -61 -18 0 -24 4 -26 63 -32 34 -4 78
-10 98 -13 l36 -5 12 76 c15 107 14 123 -8 129 -12 3 -22 -1 -25 -10z"/>
<path d="M556 308 c-3 -7 -7 -28 -10 -45 -8 -46 -51 -107 -97 -138 -78 -51
-172 -51 -256 1 -70 43 -68 57 6 48 60 -6 61 -6 61 18 0 24 -4 26 -62 32 -35
4 -79 10 -99 13 l-36 5 -12 -76 c-15 -107 -14 -123 8 -129 23 -6 31 10 31 59
0 19 2 34 5 34 3 0 26 -15 52 -34 67 -47 113 -59 197 -54 81 5 121 23 176 78
50 50 70 89 77 151 5 45 4 49 -16 49 -12 0 -23 -6 -25 -12z"/>
</g>
</svg>
