<?xml version="1.0" standalone="no"?>
<!DOCTYPE svg PUBLIC "-//W3C//DTD SVG 20010904//EN"
 "http://www.w3.org/TR/2001/REC-SVG-20010904/DTD/svg10.dtd">
<svg version="1.0" xmlns="http://www.w3.org/2000/svg"
 width="64.000000pt" height="64.000000pt" viewBox="0 0 64.000000 64.000000"
 preserveAspectRatio="xMidYMid meet">
<metadata>
Created by potrace 1.15, written by Peter Selinger 2001-2017
</metadata>
<g transform="translate(0.000000,64.000000) scale(0.100000,-0.100000)"
fill="#000000" stroke="none">
<path d="M40 320 l0 -320 130 0 130 0 0 320 0 320 -130 0 -130 0 0 -320z m220
0 l0 -280 -90 0 -90 0 0 30 c0 28 2 30 40 30 33 0 40 3 40 20 0 17 -7 20 -40
20 -38 0 -40 2 -40 30 0 23 4 30 20 30 13 0 20 7 20 20 0 13 -7 20 -20 20 -16
0 -20 7 -20 30 0 28 2 30 40 30 33 0 40 3 40 20 0 17 -7 20 -40 20 -38 0 -40
2 -40 30 0 23 4 30 20 30 13 0 20 7 20 20 0 13 -7 20 -20 20 -16 0 -20 7 -20
30 0 28 2 30 40 30 33 0 40 3 40 20 0 17 -7 20 -40 20 -38 0 -40 2 -40 30 l0
30 90 0 90 0 0 -280z"/>
<path d="M360 392 l0 -248 56 -67 c30 -37 59 -67 64 -67 5 0 34 30 64 67 l56
67 0 248 0 248 -120 0 -120 0 0 -248z m100 -52 l0 -160 -30 0 -30 0 0 160 0
160 30 0 30 0 0 -160z m100 0 l0 -160 -30 0 -30 0 0 160 0 160 30 0 30 0 0
-160z"/>
</g>
</svg>
