<?xml version="1.0" standalone="no"?>
<!DOCTYPE svg PUBLIC "-//W3C//DTD SVG 20010904//EN"
 "http://www.w3.org/TR/2001/REC-SVG-20010904/DTD/svg10.dtd">
<svg version="1.0" xmlns="http://www.w3.org/2000/svg"
 width="64.000000pt" height="64.000000pt" viewBox="0 0 64.000000 64.000000"
 preserveAspectRatio="xMidYMid meet">
<metadata>
Created by potrace 1.15, written by Peter Selinger 2001-2017
</metadata>
<g transform="translate(0.000000,64.000000) scale(0.100000,-0.100000)"
fill="#000000" stroke="none">
<path d="M74 602 c-21 -44 -21 -120 0 -159 8 -15 46 -59 85 -98 l71 -69 -27
-28 c-20 -21 -36 -28 -66 -28 -29 0 -45 -7 -68 -29 -25 -25 -29 -37 -29 -81 0
-44 4 -56 29 -81 43 -42 119 -42 162 0 21 21 29 39 29 63 0 25 8 42 30 63 l30
29 30 -29 c22 -21 30 -38 30 -63 0 -24 8 -42 29 -63 25 -25 37 -29 81 -29 44
0 56 4 81 29 42 43 42 119 0 162 -23 23 -38 29 -71 29 -32 0 -46 6 -65 27
l-23 28 79 82 c45 47 81 94 84 110 4 15 8 36 10 46 4 22 -13 86 -30 110 -11
16 -23 6 -121 -107 -59 -70 -111 -126 -114 -126 -3 0 -53 54 -109 120 -57 66
-107 123 -111 125 -4 3 -16 -12 -26 -33z m136 -169 c56 -65 105 -118 110 -118
5 0 54 53 110 118 56 65 104 116 107 114 2 -3 1 -22 -3 -42 -5 -28 -28 -59
-95 -130 -49 -51 -89 -96 -89 -101 0 -4 14 -22 31 -40 47 -49 26 -65 -22 -18
l-39 38 -39 -38 c-48 -47 -66 -31 -22 20 17 19 31 38 31 41 0 4 -38 46 -85 93
-46 48 -89 99 -95 114 -10 28 -14 66 -5 66 2 0 50 -53 105 -117z"/>
</g>
</svg>
