<?xml version="1.0" standalone="no"?>
<!DOCTYPE svg PUBLIC "-//W3C//DTD SVG 20010904//EN"
 "http://www.w3.org/TR/2001/REC-SVG-20010904/DTD/svg10.dtd">
<svg version="1.0" xmlns="http://www.w3.org/2000/svg"
 width="64.000000pt" height="64.000000pt" viewBox="0 0 64.000000 64.000000"
 preserveAspectRatio="xMidYMid meet">
<metadata>
Created by potrace 1.15, written by Peter Selinger 2001-2017
</metadata>
<g transform="translate(0.000000,64.000000) scale(0.100000,-0.100000)"
fill="#000000" stroke="none">
<path d="M52 587 c-29 -29 -52 -57 -52 -63 0 -21 96 -104 121 -104 15 0 37
-12 52 -28 l27 -28 -95 -78 c-52 -42 -95 -80 -95 -84 0 -4 34 -41 76 -82 l75
-75 27 30 c15 17 43 51 63 75 l37 45 78 -76 c89 -86 121 -99 178 -75 26 11 41
26 52 52 25 59 11 89 -82 185 -46 47 -81 89 -77 92 4 4 26 -12 50 -35 l43 -42
58 57 57 57 -100 101 c-113 114 -136 129 -197 129 -41 0 -108 -30 -108 -48 0
-4 22 -30 50 -57 l50 -49 -27 -28 -27 -28 -33 32 c-21 20 -33 42 -33 58 0 18
-15 41 -48 73 -26 26 -52 47 -58 47 -5 0 -33 -24 -62 -53z m431 -86 l92 -90
-23 -23 -22 -23 -113 113 -112 112 43 0 c41 0 48 -5 135 -89z m-88 -71 c9 -14
3 -22 -124 -175 l-113 -137 -39 38 c-21 20 -36 41 -33 45 8 14 285 239 294
239 5 0 12 -4 15 -10z m165 -289 c0 -27 -34 -61 -61 -61 -13 0 -52 30 -100 76
l-78 77 37 48 37 48 83 -83 c51 -52 82 -91 82 -105z"/>
</g>
</svg>
