<?xml version="1.0" standalone="no"?>
<!DOCTYPE svg PUBLIC "-//W3C//DTD SVG 20010904//EN"
 "http://www.w3.org/TR/2001/REC-SVG-20010904/DTD/svg10.dtd">
<svg version="1.0" xmlns="http://www.w3.org/2000/svg"
 width="64.000000pt" height="64.000000pt" viewBox="0 0 64.000000 64.000000"
 preserveAspectRatio="xMidYMid meet">
<metadata>
Created by potrace 1.15, written by Peter Selinger 2001-2017
</metadata>
<g transform="translate(0.000000,64.000000) scale(0.100000,-0.100000)"
fill="#000000" stroke="none">
<path d="M240 601 c0 -54 -15 -59 -56 -20 l-34 33 -62 -62 -62 -62 33 -34 c39
-41 34 -56 -20 -56 l-39 0 0 -80 0 -80 39 0 c54 0 59 -15 20 -56 l-33 -34 62
-62 62 -62 34 33 c41 39 56 34 56 -20 l0 -39 80 0 80 0 0 39 c0 54 15 59 56
20 l34 -33 62 62 62 62 -33 34 c-39 41 -34 56 20 56 l39 0 0 80 0 80 -39 0
c-54 0 -59 15 -20 56 l33 34 -62 62 -62 62 -34 -33 c-41 -39 -56 -34 -56 20
l0 39 -80 0 -80 0 0 -39z m120 -41 c0 -29 5 -42 19 -50 28 -15 63 -12 90 6 21
15 24 15 43 -4 19 -19 19 -22 4 -43 -18 -27 -21 -62 -6 -90 8 -14 21 -19 50
-19 40 0 40 0 40 -40 0 -40 0 -40 -40 -40 -29 0 -42 -5 -50 -19 -15 -28 -12
-63 6 -90 15 -21 15 -24 -4 -43 -19 -19 -22 -19 -43 -4 -27 18 -62 21 -90 6
-14 -8 -19 -21 -19 -50 0 -40 0 -40 -40 -40 -40 0 -40 0 -40 40 0 29 -5 42
-19 50 -28 15 -63 12 -90 -6 -21 -15 -24 -15 -43 4 -19 19 -19 22 -4 43 18 27
21 62 6 90 -8 14 -21 19 -50 19 -40 0 -40 0 -40 40 0 40 0 40 40 40 29 0 42 5
50 19 15 28 12 63 -6 90 -15 21 -15 24 4 43 19 19 22 19 43 4 27 -18 62 -21
90 -6 14 8 19 21 19 50 0 40 0 40 40 40 40 0 40 0 40 -40z"/>
<path d="M249 391 c-64 -65 -20 -171 71 -171 91 0 135 106 71 171 -23 23 -38
29 -71 29 -33 0 -48 -6 -71 -29z"/>
</g>
</svg>
