<?xml version="1.0" standalone="no"?>
<!DOCTYPE svg PUBLIC "-//W3C//DTD SVG 20010904//EN"
 "http://www.w3.org/TR/2001/REC-SVG-20010904/DTD/svg10.dtd">
<svg version="1.0" xmlns="http://www.w3.org/2000/svg"
 width="64.000000pt" height="64.000000pt" viewBox="0 0 64.000000 64.000000"
 preserveAspectRatio="xMidYMid meet">
<metadata>
Created by potrace 1.15, written by Peter Selinger 2001-2017
</metadata>
<g transform="translate(0.000000,64.000000) scale(0.100000,-0.100000)"
fill="#000000" stroke="none">
<path d="M81 526 c-71 -132 -76 -164 -31 -206 l30 -28 0 -146 0 -146 100 0
100 0 0 70 0 70 40 0 40 0 0 -70 0 -70 100 0 100 0 0 146 0 146 30 28 c45 42
40 74 -31 206 l-60 114 -179 0 -179 0 -60 -114z m437 -26 c29 -56 52 -110 50
-122 -5 -32 -44 -42 -68 -18 -20 20 -70 28 -70 10 0 -15 -35 -29 -58 -23 -12
3 -22 12 -22 19 0 9 -11 14 -30 14 -19 0 -30 -5 -30 -14 0 -7 -8 -16 -18 -18
-22 -6 -62 8 -62 22 0 18 -49 11 -70 -10 -24 -24 -63 -14 -68 18 -2 12 21 66
50 122 l53 100 145 0 145 0 53 -100z m-270 -198 c26 -2 49 1 58 9 11 9 18 9
26 1 14 -14 82 -16 107 -2 12 6 29 5 50 -3 l31 -11 0 -128 0 -128 -60 0 -60 0
0 70 0 70 -80 0 -80 0 0 -70 0 -70 -60 0 -60 0 0 128 0 128 28 11 c15 6 34 8
42 5 8 -3 34 -7 58 -10z"/>
</g>
</svg>
