<?xml version="1.0" standalone="no"?>
<!DOCTYPE svg PUBLIC "-//W3C//DTD SVG 20010904//EN"
 "http://www.w3.org/TR/2001/REC-SVG-20010904/DTD/svg10.dtd">
<svg version="1.0" xmlns="http://www.w3.org/2000/svg"
 width="64.000000pt" height="64.000000pt" viewBox="0 0 64.000000 64.000000"
 preserveAspectRatio="xMidYMid meet">
<metadata>
Created by potrace 1.15, written by Peter Selinger 2001-2017
</metadata>
<g transform="translate(0.000000,64.000000) scale(0.100000,-0.100000)"
fill="#000000" stroke="none">
<path d="M300 480 l0 -140 -140 0 c-133 0 -140 -1 -140 -20 0 -19 7 -20 140
-20 l140 0 0 -140 c0 -133 1 -140 20 -140 19 0 20 7 20 140 l0 140 140 0 c133
0 140 1 140 20 0 19 -7 20 -140 20 l-140 0 0 140 c0 133 -1 140 -20 140 -19 0
-20 -7 -20 -140z"/>
</g>
</svg>
