<?xml version="1.0" standalone="no"?>
<!DOCTYPE svg PUBLIC "-//W3C//DTD SVG 20010904//EN"
 "http://www.w3.org/TR/2001/REC-SVG-20010904/DTD/svg10.dtd">
<svg version="1.0" xmlns="http://www.w3.org/2000/svg"
 width="64.000000pt" height="64.000000pt" viewBox="0 0 64.000000 64.000000"
 preserveAspectRatio="xMidYMid meet">
<metadata>
Created by potrace 1.15, written by Peter Selinger 2001-2017
</metadata>
<g transform="translate(0.000000,64.000000) scale(0.100000,-0.100000)"
fill="#000000" stroke="none">
<path d="M473 605 c-29 -8 -74 -25 -100 -38 -40 -20 -59 -23 -115 -19 -38 2
-82 -1 -104 -8 -38 -13 -124 -90 -124 -112 0 -7 19 -31 42 -55 l42 -43 -18
-37 -17 -37 89 -88 88 -89 37 17 37 18 43 -42 c24 -23 47 -42 53 -42 22 0 83
62 103 106 18 37 22 62 20 123 -2 61 2 84 18 117 28 52 53 151 53 203 l0 41
-47 -1 c-27 0 -72 -7 -100 -14z m-23 -160 c63 -63 63 -65 49 -92 -23 -44 -126
-149 -180 -184 l-51 -32 -65 65 -66 66 24 39 c45 74 181 203 213 203 6 0 40
-29 76 -65z"/>
<path d="M297 402 c-23 -25 -22 -85 1 -105 25 -23 85 -22 105 1 23 25 22 85
-1 105 -25 23 -85 22 -105 -1z"/>
<path d="M22 137 c-17 -18 -22 -36 -22 -80 l0 -57 58 0 c71 0 102 25 102 81 0
71 -90 107 -138 56z"/>
</g>
</svg>
