<?xml version="1.0" standalone="no"?>
<!DOCTYPE svg PUBLIC "-//W3C//DTD SVG 20010904//EN"
 "http://www.w3.org/TR/2001/REC-SVG-20010904/DTD/svg10.dtd">
<svg version="1.0" xmlns="http://www.w3.org/2000/svg"
 width="64.000000pt" height="64.000000pt" viewBox="0 0 64.000000 64.000000"
 preserveAspectRatio="xMidYMid meet">
<metadata>
Created by potrace 1.15, written by Peter Selinger 2001-2017
</metadata>
<g transform="translate(0.000000,64.000000) scale(0.100000,-0.100000)"
fill="#000000" stroke="none">
<path d="M200 623 c-66 -24 -162 -123 -184 -191 -25 -75 -19 -191 12 -252 31
-60 93 -122 150 -151 40 -20 62 -24 142 -24 111 0 161 20 228 89 70 71 87 117
87 226 0 80 -4 102 -24 142 -29 57 -91 119 -151 150 -58 30 -192 36 -260 11z
m187 -38 c24 -4 46 -11 49 -17 4 -5 -11 -27 -32 -49 -33 -34 -44 -39 -84 -39
-40 0 -51 5 -85 40 -25 25 -36 43 -30 49 12 11 103 30 125 25 8 -1 34 -6 57
-9z m-265 -182 c33 -32 38 -43 38 -83 0 -40 -5 -51 -40 -85 -25 -24 -43 -35
-49 -30 -17 18 -29 114 -20 163 16 86 18 87 71 35z m264 10 c56 -36 63 -122
14 -171 -49 -49 -111 -50 -159 -1 -48 48 -48 110 0 159 42 41 94 46 145 13z
m200 -36 c12 -57 2 -152 -17 -172 -6 -5 -24 6 -49 30 -35 34 -40 45 -40 84 0
39 5 51 37 83 21 21 42 37 48 35 5 -2 15 -29 21 -60z m-184 -254 c21 -20 38
-40 38 -44 0 -21 -109 -38 -172 -27 -75 13 -78 21 -33 68 34 35 45 40 84 40
39 0 51 -5 83 -37z"/>
</g>
</svg>
