<?xml version="1.0" standalone="no"?>
<!DOCTYPE svg PUBLIC "-//W3C//DTD SVG 20010904//EN"
 "http://www.w3.org/TR/2001/REC-SVG-20010904/DTD/svg10.dtd">
<svg version="1.0" xmlns="http://www.w3.org/2000/svg"
 width="64.000000pt" height="64.000000pt" viewBox="0 0 64.000000 64.000000"
 preserveAspectRatio="xMidYMid meet">
<metadata>
Created by potrace 1.15, written by Peter Selinger 2001-2017
</metadata>
<g transform="translate(0.000000,64.000000) scale(0.100000,-0.100000)"
fill="#000000" stroke="none">
<path d="M56 624 c-14 -13 -16 -55 -16 -304 0 -249 2 -291 16 -304 23 -24 505
-24 528 0 14 13 16 55 16 304 0 249 -2 291 -16 304 -23 24 -505 24 -528 0z
m492 -36 c17 -17 17 -519 0 -536 -17 -17 -439 -17 -456 0 -17 17 -17 519 0
536 17 17 439 17 456 0z"/>
</g>
</svg>
