<?xml version="1.0" standalone="no"?>
<!DOCTYPE svg PUBLIC "-//W3C//DTD SVG 20010904//EN"
 "http://www.w3.org/TR/2001/REC-SVG-20010904/DTD/svg10.dtd">
<svg version="1.0" xmlns="http://www.w3.org/2000/svg"
 width="64.000000pt" height="64.000000pt" viewBox="0 0 64.000000 64.000000"
 preserveAspectRatio="xMidYMid meet">
<metadata>
Created by potrace 1.15, written by Peter Selinger 2001-2017
</metadata>
<g transform="translate(0.000000,64.000000) scale(0.100000,-0.100000)"
fill="#000000" stroke="none">
<path d="M192 620 c-49 -30 -72 -75 -72 -140 1 -30 6 -65 13 -78 11 -20 15
-21 32 -9 15 12 17 20 9 53 -13 54 -7 79 26 113 49 48 111 48 160 0 33 -34 39
-59 26 -113 -8 -33 -6 -41 10 -53 17 -13 20 -11 31 14 7 15 12 51 13 78 0 59
-25 106 -72 135 -45 27 -131 27 -176 0z"/>
<path d="M236 504 c-13 -12 -16 -38 -16 -120 0 -103 0 -104 -24 -104 -42 0
-56 -25 -56 -96 0 -70 7 -88 53 -146 l30 -38 148 0 c170 0 149 -14 168 111 17
101 14 156 -8 178 -11 11 -45 24 -78 31 -32 6 -70 13 -85 16 -28 5 -28 7 -28
79 0 83 -13 105 -60 105 -16 0 -36 -7 -44 -16z m62 -122 c3 -91 -6 -83 110
-103 107 -18 106 -16 87 -129 -8 -52 -15 -98 -15 -102 0 -5 -51 -8 -113 -8
l-113 0 -31 41 c-36 47 -53 120 -33 144 19 23 30 18 30 -15 0 -23 4 -30 20
-30 19 0 20 7 20 138 0 76 3 142 7 146 18 18 28 -7 31 -82z"/>
</g>
</svg>
