<?xml version="1.0" standalone="no"?>
<!DOCTYPE svg PUBLIC "-//W3C//DTD SVG 20010904//EN"
 "http://www.w3.org/TR/2001/REC-SVG-20010904/DTD/svg10.dtd">
<svg version="1.0" xmlns="http://www.w3.org/2000/svg"
 width="64.000000pt" height="64.000000pt" viewBox="0 0 64.000000 64.000000"
 preserveAspectRatio="xMidYMid meet">
<metadata>
Created by potrace 1.15, written by Peter Selinger 2001-2017
</metadata>
<g transform="translate(0.000000,64.000000) scale(0.100000,-0.100000)"
fill="#000000" stroke="none">
<path d="M26 499 l-26 -20 0 -159 0 -159 26 -20 c39 -31 70 -26 156 23 65 37
79 42 89 30 15 -18 83 -18 98 0 10 12 24 7 89 -30 86 -49 117 -54 156 -23 l26
20 0 159 0 159 -26 20 c-38 30 -68 26 -152 -20 -62 -34 -79 -39 -94 -30 -23
14 -73 14 -96 0 -15 -9 -32 -4 -94 30 -84 46 -114 50 -152 20z m140 -70 c61
-33 74 -45 74 -65 0 -21 -4 -24 -40 -24 -33 0 -40 -3 -40 -20 0 -17 7 -20 40
-20 35 0 40 -3 40 -22 0 -18 -17 -32 -75 -65 -83 -48 -100 -51 -115 -24 -13
25 -13 237 0 262 15 27 33 24 116 -22z m424 22 c13 -25 13 -237 0 -262 -15
-27 -32 -24 -115 24 -58 33 -75 47 -75 65 0 19 5 22 40 22 33 0 40 3 40 20 0
17 -7 20 -40 20 -36 0 -40 3 -40 24 0 20 14 32 73 65 81 46 102 49 117 22z"/>
</g>
</svg>
