<?xml version="1.0" standalone="no"?>
<!DOCTYPE svg PUBLIC "-//W3C//DTD SVG 20010904//EN"
 "http://www.w3.org/TR/2001/REC-SVG-20010904/DTD/svg10.dtd">
<svg version="1.0" xmlns="http://www.w3.org/2000/svg"
 width="64.000000pt" height="64.000000pt" viewBox="0 0 64.000000 64.000000"
 preserveAspectRatio="xMidYMid meet">
<metadata>
Created by potrace 1.15, written by Peter Selinger 2001-2017
</metadata>
<g transform="translate(0.000000,64.000000) scale(0.100000,-0.100000)"
fill="#000000" stroke="none">
<path d="M72 620 c-45 -28 -72 -76 -72 -129 0 -45 18 -111 31 -111 3 0 23 25
43 55 38 58 86 94 151 114 22 7 46 15 54 17 11 3 10 9 -5 25 -47 52 -142 66
-202 29z"/>
<path d="M405 622 c-43 -27 -61 -50 -44 -56 8 -3 32 -10 54 -17 65 -20 113
-56 151 -114 20 -30 40 -55 43 -55 13 0 31 66 31 111 0 53 -27 101 -72 129
-43 26 -122 27 -163 2z"/>
<path d="M202 514 c-93 -46 -141 -127 -142 -235 0 -49 6 -77 23 -112 l24 -46
-43 -42 c-41 -40 -43 -44 -27 -61 16 -18 18 -17 58 22 l42 41 57 -31 c82 -43
170 -43 252 0 l57 31 42 -41 c40 -39 42 -40 58 -22 16 17 14 21 -27 61 l-43
42 24 46 c48 97 20 241 -60 309 -83 70 -201 85 -295 38z m216 -46 c140 -65
154 -277 23 -363 -110 -72 -255 -35 -311 80 -60 124 6 266 138 301 55 14 90
10 150 -18z"/>
</g>
</svg>
