<?xml version="1.0" standalone="no"?>
<!DOCTYPE svg PUBLIC "-//W3C//DTD SVG 20010904//EN"
 "http://www.w3.org/TR/2001/REC-SVG-20010904/DTD/svg10.dtd">
<svg version="1.0" xmlns="http://www.w3.org/2000/svg"
 width="64.000000pt" height="64.000000pt" viewBox="0 0 64.000000 64.000000"
 preserveAspectRatio="xMidYMid meet">
<metadata>
Created by potrace 1.15, written by Peter Selinger 2001-2017
</metadata>
<g transform="translate(0.000000,64.000000) scale(0.100000,-0.100000)"
fill="#000000" stroke="none">
<path d="M120 320 c0 -257 2 -300 14 -293 30 17 405 288 405 293 0 5 -375 276
-405 293 -12 7 -14 -36 -14 -293z m195 102 c72 -51 130 -97 130 -102 0 -7
-224 -174 -272 -204 -10 -6 -13 38 -13 204 0 166 3 210 13 204 6 -5 70 -50
142 -102z"/>
</g>
</svg>
