<?xml version="1.0" standalone="no"?>
<!DOCTYPE svg PUBLIC "-//W3C//DTD SVG 20010904//EN"
 "http://www.w3.org/TR/2001/REC-SVG-20010904/DTD/svg10.dtd">
<svg version="1.0" xmlns="http://www.w3.org/2000/svg"
 width="64.000000pt" height="64.000000pt" viewBox="0 0 64.000000 64.000000"
 preserveAspectRatio="xMidYMid meet">
<metadata>
Created by potrace 1.15, written by Peter Selinger 2001-2017
</metadata>
<g transform="translate(0.000000,64.000000) scale(0.100000,-0.100000)"
fill="#000000" stroke="none">
<path d="M0 370 l0 -250 150 0 c139 0 150 -1 150 -19 0 -15 -11 -19 -72 -24
-105 -10 -120 -15 -112 -41 4 -11 7 -22 8 -23 0 -1 24 3 51 8 64 13 226 13
290 0 27 -5 51 -9 51 -8 1 1 4 12 8 23 8 26 -7 31 -111 41 -62 5 -73 9 -73 24
0 18 11 19 150 19 l150 0 0 250 0 250 -320 0 -320 0 0 -250z m600 0 l0 -210
-280 0 -280 0 0 210 0 210 280 0 280 0 0 -210z"/>
</g>
</svg>
