<?xml version="1.0" standalone="no"?>
<!DOCTYPE svg PUBLIC "-//W3C//DTD SVG 20010904//EN"
 "http://www.w3.org/TR/2001/REC-SVG-20010904/DTD/svg10.dtd">
<svg version="1.0" xmlns="http://www.w3.org/2000/svg"
 width="64.000000pt" height="64.000000pt" viewBox="0 0 64.000000 64.000000"
 preserveAspectRatio="xMidYMid meet">
<metadata>
Created by potrace 1.15, written by Peter Selinger 2001-2017
</metadata>
<g transform="translate(0.000000,64.000000) scale(0.100000,-0.100000)"
fill="#000000" stroke="none">
<path d="M300 611 c0 -26 -4 -29 -43 -35 -23 -4 -65 -20 -93 -36 -78 -44 -122
-108 -148 -212 l-6 -28 145 0 145 0 0 -128 c0 -121 1 -130 23 -150 49 -47 137
-14 137 51 0 36 -36 38 -50 2 -11 -29 -54 -35 -64 -9 -3 9 -6 65 -6 125 l0
109 146 0 c134 0 145 1 140 18 -2 9 -10 35 -16 57 -28 96 -131 186 -227 201
-39 6 -43 9 -43 35 0 22 -5 29 -20 29 -15 0 -20 -7 -20 -29z"/>
</g>
</svg>
