<?xml version="1.0" standalone="no"?>
<!DOCTYPE svg PUBLIC "-//W3C//DTD SVG 20010904//EN"
 "http://www.w3.org/TR/2001/REC-SVG-20010904/DTD/svg10.dtd">
<svg version="1.0" xmlns="http://www.w3.org/2000/svg"
 width="64.000000pt" height="64.000000pt" viewBox="0 0 64.000000 64.000000"
 preserveAspectRatio="xMidYMid meet">
<metadata>
Created by potrace 1.15, written by Peter Selinger 2001-2017
</metadata>
<g transform="translate(0.000000,64.000000) scale(0.100000,-0.100000)"
fill="#000000" stroke="none">
<path d="M22 537 c-14 -15 -22 -36 -22 -58 0 -77 93 -108 143 -49 14 17 34 30
43 30 12 0 5 -11 -23 -35 -47 -40 -83 -107 -83 -153 0 -29 -3 -32 -30 -32
l-30 0 0 -80 0 -80 80 0 80 0 0 79 0 80 -28 3 c-27 3 -28 4 -19 47 6 32 21 55
55 89 26 27 47 41 50 34 5 -17 159 -17 164 0 3 7 24 -7 50 -34 34 -34 49 -57
55 -89 9 -43 8 -44 -19 -47 l-28 -3 0 -80 0 -79 80 0 80 0 0 80 0 80 -30 0
c-27 0 -30 3 -30 32 0 45 -35 111 -81 152 -24 23 -33 36 -23 36 8 0 27 -13 41
-30 51 -61 143 -28 143 51 0 77 -93 108 -143 49 -20 -23 -34 -30 -61 -30 -33
0 -36 2 -36 30 l0 30 -80 0 -80 0 0 -30 c0 -28 -3 -30 -36 -30 -27 0 -41 7
-61 30 -32 39 -88 42 -121 7z"/>
</g>
</svg>
