<?xml version="1.0" standalone="no"?>
<!DOCTYPE svg PUBLIC "-//W3C//DTD SVG 20010904//EN"
 "http://www.w3.org/TR/2001/REC-SVG-20010904/DTD/svg10.dtd">
<svg version="1.0" xmlns="http://www.w3.org/2000/svg"
 width="64.000000pt" height="64.000000pt" viewBox="0 0 64.000000 64.000000"
 preserveAspectRatio="xMidYMid meet">
<metadata>
Created by potrace 1.15, written by Peter Selinger 2001-2017
</metadata>
<g transform="translate(0.000000,64.000000) scale(0.100000,-0.100000)"
fill="#000000" stroke="none">
<path d="M200 623 c-64 -23 -161 -123 -183 -187 -21 -63 -22 -169 -1 -230 20
-59 97 -144 160 -176 42 -21 63 -25 144 -25 111 0 161 20 228 89 70 71 87 117
87 226 0 80 -4 102 -24 142 -29 57 -91 119 -151 150 -58 30 -192 36 -260 11z
m108 -86 c24 -29 52 -64 63 -79 25 -35 72 -37 131 -7 l41 21 18 -23 c25 -34
38 -119 27 -181 -14 -76 -63 -144 -139 -190 -62 -39 -184 -39 -255 -2 l-30 17
19 38 c24 49 17 93 -23 144 -17 21 -30 41 -30 45 0 4 18 15 40 25 60 27 75 49
73 107 -1 35 -8 60 -23 80 -25 34 -12 52 40 56 3 0 24 -23 48 -51z m-136 -24
c42 -47 33 -95 -22 -123 -81 -41 -88 -68 -35 -140 37 -50 42 -69 24 -101 -12
-24 -23 -18 -54 31 -46 72 -49 201 -7 269 19 32 63 81 72 81 4 0 14 -8 22 -17z"/>
<path d="M353 385 c-47 -20 -55 -45 -51 -150 4 -107 19 -135 73 -135 39 0 107
56 135 111 22 41 26 109 10 140 -24 45 -105 61 -167 34z m103 -43 c30 -20 35
-51 16 -95 -28 -62 -99 -117 -116 -89 -2 4 -6 43 -7 86 -3 67 -1 80 16 92 20
15 73 19 91 6z"/>
</g>
</svg>
